<svg width="752" height="99" viewBox="0 0 752 99" fill="none" xmlns="http://www.w3.org/2000/svg">
<path d="M730.491 96.7812H691.491V79.7812H730.491C731.658 79.7812 732.658 79.3646 733.491 78.5312C734.325 77.6979 734.741 76.6979 734.741 75.5312C734.741 74.3229 734.325 73.5312 733.491 73.1562C732.658 72.7812 731.658 72.5938 730.491 72.5938H712.741C709.783 72.5938 707.012 72.0312 704.429 70.9062C701.845 69.7812 699.595 68.2604 697.679 66.3438C695.762 64.3854 694.241 62.1146 693.116 59.5312C692.033 56.9479 691.491 54.1771 691.491 51.2188C691.491 48.2604 692.033 45.4896 693.116 42.9062C694.241 40.3229 695.762 38.0729 697.679 36.1562C699.595 34.2396 701.845 32.7396 704.429 31.6562C707.012 30.5312 709.783 29.9688 712.741 29.9688H747.304V46.9688H712.741C711.575 46.9688 710.575 47.3854 709.741 48.2188C708.908 49.0521 708.491 50.0521 708.491 51.2188C708.491 52.4271 708.908 53.4688 709.741 54.3438C710.575 55.1771 711.575 55.5938 712.741 55.5938H730.491C733.408 55.5938 736.158 56.0938 738.741 57.0938C741.325 58.0521 743.575 59.4062 745.491 61.1562C747.408 62.9062 748.929 65.0104 750.054 67.4688C751.179 69.9271 751.741 72.6146 751.741 75.5312C751.741 78.4896 751.179 81.2604 750.054 83.8438C748.929 86.3854 747.408 88.6354 745.491 90.5938C743.575 92.5104 741.325 94.0312 738.741 95.1562C736.158 96.2396 733.408 96.7812 730.491 96.7812Z" fill="#95FF8D"/>
<path d="M642.644 96.7812H625.581V29.8438H629.706L635.331 36.3438C638.081 33.8438 641.185 31.9271 644.644 30.5938C648.144 29.2188 651.789 28.5312 655.581 28.5312C659.664 28.5312 663.519 29.3229 667.144 30.9062C670.769 32.4479 673.935 34.5938 676.644 37.3438C679.352 40.0521 681.477 43.2396 683.019 46.9062C684.602 50.5312 685.394 54.4062 685.394 58.5312V96.7812H668.331V58.5312C668.331 56.7812 667.998 55.1354 667.331 53.5938C666.664 52.0104 665.748 50.6354 664.581 49.4688C663.414 48.3021 662.06 47.3854 660.519 46.7188C658.977 46.0521 657.331 45.7188 655.581 45.7188C653.789 45.7188 652.102 46.0521 650.519 46.7188C648.935 47.3854 647.56 48.3021 646.394 49.4688C645.227 50.6354 644.31 52.0104 643.644 53.5938C642.977 55.1354 642.644 56.7812 642.644 58.5312V96.7812Z" fill="#95FF8D"/>
<path d="M619.984 62.7188C619.984 67.7188 619.088 72.3854 617.296 76.7188C615.505 81.0104 613.067 84.7396 609.984 87.9062C606.901 91.0312 603.276 93.5104 599.109 95.3438C594.984 97.1354 590.546 98.0312 585.796 98.0312C581.088 98.0312 576.651 97.1354 572.484 95.3438C568.359 93.5104 564.734 91.0312 561.609 87.9062C558.526 84.7396 556.088 81.0104 554.296 76.7188C552.505 72.3854 551.609 67.7188 551.609 62.7188C551.609 57.6354 552.505 52.9271 554.296 48.5938C556.088 44.2604 558.526 40.5312 561.609 37.4062C564.734 34.2396 568.359 31.7604 572.484 29.9688C576.651 28.1771 581.088 27.2812 585.796 27.2812C590.546 27.2812 594.984 28.1354 599.109 29.8438C603.276 31.5104 606.901 33.9062 609.984 37.0312C613.067 40.1146 615.505 43.8438 617.296 48.2188C619.088 52.5521 619.984 57.3854 619.984 62.7188ZM602.796 62.7188C602.796 59.9688 602.338 57.4896 601.421 55.2812C600.546 53.0312 599.338 51.1146 597.796 49.5312C596.255 47.9062 594.442 46.6771 592.359 45.8438C590.317 44.9688 588.13 44.5312 585.796 44.5312C583.463 44.5312 581.255 44.9688 579.171 45.8438C577.13 46.6771 575.338 47.9062 573.796 49.5312C572.296 51.1146 571.109 53.0312 570.234 55.2812C569.359 57.4896 568.921 59.9688 568.921 62.7188C568.921 65.3021 569.359 67.6979 570.234 69.9062C571.109 72.1146 572.296 74.0312 573.796 75.6562C575.338 77.2812 577.13 78.5729 579.171 79.5312C581.255 80.4479 583.463 80.9062 585.796 80.9062C588.13 80.9062 590.317 80.4688 592.359 79.5938C594.442 78.7188 596.255 77.4896 597.796 75.9062C599.338 74.3229 600.546 72.4062 601.421 70.1562C602.338 67.9062 602.796 65.4271 602.796 62.7188Z" fill="#95FF8D"/>
<path d="M549.011 11.6562C549.011 13.2396 548.699 14.7188 548.074 16.0938C547.49 17.4688 546.678 18.6771 545.636 19.7188C544.595 20.7188 543.365 21.5312 541.949 22.1562C540.574 22.7396 539.095 23.0312 537.511 23.0312C535.928 23.0312 534.428 22.7396 533.011 22.1562C531.636 21.5312 530.428 20.7188 529.386 19.7188C528.386 18.6771 527.574 17.4688 526.949 16.0938C526.365 14.7188 526.074 13.2396 526.074 11.6562C526.074 10.1146 526.365 8.65625 526.949 7.28125C527.574 5.86458 528.386 4.65625 529.386 3.65625C530.428 2.61458 531.636 1.80208 533.011 1.21875C534.428 0.59375 535.928 0.28125 537.511 0.28125C539.095 0.28125 540.574 0.59375 541.949 1.21875C543.365 1.80208 544.595 2.61458 545.636 3.65625C546.678 4.65625 547.49 5.86458 548.074 7.28125C548.699 8.65625 549.011 10.1146 549.011 11.6562ZM546.074 96.7812H528.886V29.8438H546.074V96.7812Z" fill="#95FF8D"/>
<path d="M510.164 96.7812C506.039 96.7812 502.164 96.0104 498.539 94.4688C494.914 92.8854 491.726 90.7396 488.976 88.0312C486.268 85.2812 484.122 82.0938 482.539 78.4688C480.997 74.8438 480.226 70.9688 480.226 66.8438V46.9688H471.914V29.9688H480.226V3.21875H497.226V29.9688H523.101V46.9688H497.226V66.8438C497.226 68.6354 497.559 70.3229 498.226 71.9062C498.893 73.4479 499.809 74.8021 500.976 75.9688C502.143 77.1354 503.518 78.0729 505.101 78.7812C506.684 79.4479 508.372 79.7812 510.164 79.7812H523.101V96.7812H510.164Z" fill="#95FF8D"/>
<path d="M457.629 88.9688C456.254 90.2188 454.775 91.4062 453.191 92.5312C451.65 93.6146 450.025 94.5729 448.316 95.4062C446.608 96.1979 444.837 96.8229 443.004 97.2812C441.212 97.7812 439.379 98.0312 437.504 98.0312C433.379 98.0312 429.504 97.3021 425.879 95.8438C422.254 94.3854 419.066 92.3229 416.316 89.6562C413.608 86.9479 411.462 83.6771 409.879 79.8438C408.337 75.9688 407.566 71.6354 407.566 66.8438V29.8438H424.566V66.8438C424.566 69.0938 424.9 71.1146 425.566 72.9062C426.275 74.6562 427.212 76.1354 428.379 77.3438C429.546 78.5521 430.9 79.4688 432.441 80.0938C434.025 80.7188 435.712 81.0312 437.504 81.0312C439.254 81.0312 440.9 80.6354 442.441 79.8438C444.025 79.0104 445.4 77.9271 446.566 76.5938C447.733 75.2604 448.65 73.7604 449.316 72.0938C449.983 70.3854 450.316 68.6354 450.316 66.8438V29.8438H467.379V96.7812H463.254L457.629 88.9688Z" fill="#95FF8D"/>
<path d="M399.219 96.7812H382.031V3.21875H399.219V96.7812Z" fill="#95FF8D"/>
<path d="M376.434 62.7188C376.434 67.7188 375.538 72.3854 373.746 76.7188C371.955 81.0104 369.517 84.7396 366.434 87.9062C363.351 91.0312 359.726 93.5104 355.559 95.3438C351.434 97.1354 346.996 98.0312 342.246 98.0312C337.538 98.0312 333.101 97.1354 328.934 95.3438C324.809 93.5104 321.184 91.0312 318.059 87.9062C314.976 84.7396 312.538 81.0104 310.746 76.7188C308.955 72.3854 308.059 67.7188 308.059 62.7188C308.059 57.6354 308.955 52.9271 310.746 48.5938C312.538 44.2604 314.976 40.5312 318.059 37.4062C321.184 34.2396 324.809 31.7604 328.934 29.9688C333.101 28.1771 337.538 27.2812 342.246 27.2812C346.996 27.2812 351.434 28.1354 355.559 29.8438C359.726 31.5104 363.351 33.9062 366.434 37.0312C369.517 40.1146 371.955 43.8438 373.746 48.2188C375.538 52.5521 376.434 57.3854 376.434 62.7188ZM359.246 62.7188C359.246 59.9688 358.788 57.4896 357.871 55.2812C356.996 53.0312 355.788 51.1146 354.246 49.5312C352.705 47.9062 350.892 46.6771 348.809 45.8438C346.767 44.9688 344.58 44.5312 342.246 44.5312C339.913 44.5312 337.705 44.9688 335.621 45.8438C333.58 46.6771 331.788 47.9062 330.246 49.5312C328.746 51.1146 327.559 53.0312 326.684 55.2812C325.809 57.4896 325.371 59.9688 325.371 62.7188C325.371 65.3021 325.809 67.6979 326.684 69.9062C327.559 72.1146 328.746 74.0312 330.246 75.6562C331.788 77.2812 333.58 78.5729 335.621 79.5312C337.705 80.4479 339.913 80.9062 342.246 80.9062C344.58 80.9062 346.767 80.4688 348.809 79.5938C350.892 78.7188 352.705 77.4896 354.246 75.9062C355.788 74.3229 356.996 72.4062 357.871 70.1562C358.788 67.9062 359.246 65.4271 359.246 62.7188Z" fill="#95FF8D"/>
<path d="M285.211 96.7812H246.211V79.7812H285.211C286.378 79.7812 287.378 79.3646 288.211 78.5312C289.045 77.6979 289.461 76.6979 289.461 75.5312C289.461 74.3229 289.045 73.5312 288.211 73.1562C287.378 72.7812 286.378 72.5938 285.211 72.5938H267.461C264.503 72.5938 261.732 72.0312 259.149 70.9062C256.565 69.7812 254.315 68.2604 252.399 66.3438C250.482 64.3854 248.961 62.1146 247.836 59.5312C246.753 56.9479 246.211 54.1771 246.211 51.2188C246.211 48.2604 246.753 45.4896 247.836 42.9062C248.961 40.3229 250.482 38.0729 252.399 36.1562C254.315 34.2396 256.565 32.7396 259.149 31.6562C261.732 30.5312 264.503 29.9688 267.461 29.9688H302.024V46.9688H267.461C266.295 46.9688 265.295 47.3854 264.461 48.2188C263.628 49.0521 263.211 50.0521 263.211 51.2188C263.211 52.4271 263.628 53.4688 264.461 54.3438C265.295 55.1771 266.295 55.5938 267.461 55.5938H285.211C288.128 55.5938 290.878 56.0938 293.461 57.0938C296.045 58.0521 298.295 59.4062 300.211 61.1562C302.128 62.9062 303.649 65.0104 304.774 67.4688C305.899 69.9271 306.461 72.6146 306.461 75.5312C306.461 78.4896 305.899 81.2604 304.774 83.8438C303.649 86.3854 302.128 88.6354 300.211 90.5938C298.295 92.5104 296.045 94.0312 293.461 95.1562C290.878 96.2396 288.128 96.7812 285.211 96.7812Z" fill="#95FF8D"/>
<path d="M184.329 96.7812H167.266V29.8438H171.391L177.016 37.7812C179.766 35.2812 182.891 33.3646 186.391 32.0312C189.891 30.6562 193.516 29.9688 197.266 29.9688H212.329V46.9688H197.266C195.475 46.9688 193.787 47.3021 192.204 47.9688C190.621 48.6354 189.246 49.5521 188.079 50.7188C186.912 51.8854 185.996 53.2604 185.329 54.8438C184.662 56.4271 184.329 58.1146 184.329 59.9062V96.7812Z" fill="#95FF8D"/>
<path d="M148.294 88.9688C146.919 90.2188 145.44 91.4062 143.856 92.5312C142.315 93.6146 140.69 94.5729 138.981 95.4062C137.273 96.1979 135.502 96.8229 133.669 97.2812C131.877 97.7812 130.044 98.0312 128.169 98.0312C124.044 98.0312 120.169 97.3021 116.544 95.8438C112.919 94.3854 109.731 92.3229 106.981 89.6562C104.273 86.9479 102.127 83.6771 100.544 79.8438C99.002 75.9688 98.2312 71.6354 98.2312 66.8438V29.8438H115.231V66.8438C115.231 69.0938 115.565 71.1146 116.231 72.9062C116.94 74.6562 117.877 76.1354 119.044 77.3438C120.21 78.5521 121.565 79.4688 123.106 80.0938C124.69 80.7188 126.377 81.0312 128.169 81.0312C129.919 81.0312 131.565 80.6354 133.106 79.8438C134.69 79.0104 136.065 77.9271 137.231 76.5938C138.398 75.2604 139.315 73.7604 139.981 72.0938C140.648 70.3854 140.981 68.6354 140.981 66.8438V29.8438H158.044V96.7812H153.919L148.294 88.9688Z" fill="#95FF8D"/>
<path d="M92.9463 52.3438C92.9463 56.5938 92.3838 60.6979 91.2588 64.6562C90.1755 68.5729 88.6338 72.2604 86.6338 75.7188C84.6338 79.1354 82.2171 82.2604 79.3838 85.0938C76.5505 87.9271 73.4255 90.3646 70.0088 92.4062C66.5921 94.4062 62.9046 95.9479 58.9463 97.0312C54.988 98.1562 50.8838 98.7188 46.6338 98.7188C42.3838 98.7188 38.2796 98.1562 34.3213 97.0312C30.4046 95.9479 26.7171 94.4062 23.2588 92.4062C19.8421 90.3646 16.7171 87.9271 13.8838 85.0938C11.0505 82.2604 8.61296 79.1354 6.57129 75.7188C4.57129 72.2604 3.00879 68.5729 1.88379 64.6562C0.800456 60.6979 0.258789 56.5938 0.258789 52.3438C0.258789 48.0938 0.800456 43.9896 1.88379 40.0312C3.00879 36.0729 4.57129 32.3854 6.57129 28.9688C8.61296 25.5521 11.0505 22.4271 13.8838 19.5938C16.7171 16.7604 19.8421 14.3438 23.2588 12.3438C26.7171 10.3438 30.4046 8.80208 34.3213 7.71875C38.2796 6.59375 42.3838 6.03125 46.6338 6.03125C50.8838 6.03125 54.988 6.59375 58.9463 7.71875C62.9046 8.80208 66.5921 10.3438 70.0088 12.3438C73.4255 14.3438 76.5505 16.7604 79.3838 19.5938C82.2171 22.4271 84.6338 25.5521 86.6338 28.9688C88.6338 32.3854 90.1755 36.0729 91.2588 40.0312C92.3838 43.9896 92.9463 48.0938 92.9463 52.3438ZM75.1338 52.3438C75.1338 48.4271 74.3838 44.7396 72.8838 41.2812C71.3838 37.7812 69.3421 34.7604 66.7588 32.2188C64.2171 29.6354 61.1963 27.5938 57.6963 26.0938C54.238 24.5938 50.5505 23.8438 46.6338 23.8438C42.6755 23.8438 38.9671 24.5938 35.5088 26.0938C32.0505 27.5938 29.0296 29.6354 26.4463 32.2188C23.863 34.7604 21.8213 37.7812 20.3213 41.2812C18.8213 44.7396 18.0713 48.4271 18.0713 52.3438C18.0713 56.2604 18.8213 59.9479 20.3213 63.4062C21.8213 66.8229 23.863 69.8229 26.4463 72.4062C29.0296 74.9896 32.0505 77.0312 35.5088 78.5312C38.9671 80.0312 42.6755 80.7812 46.6338 80.7812C50.5505 80.7812 54.238 80.0312 57.6963 78.5312C61.1963 77.0312 64.2171 74.9896 66.7588 72.4062C69.3421 69.8229 71.3838 66.8229 72.8838 63.4062C74.3838 59.9479 75.1338 56.2604 75.1338 52.3438Z" fill="#95FF8D"/>
</svg>
