<svg width="788" height="131" viewBox="0 0 788 131" fill="none" xmlns="http://www.w3.org/2000/svg">
<g clip-path="url(#clip0_493_716)">
<path d="M533.894 109.647L538.862 94.1558L524.188 99.9412L509.156 94.1558L514.941 109.188L509.156 123.862L524.647 118.894L538.862 123.862L533.894 109.647Z" fill="white"/>
<path d="M531.455 102.47L524.009 88L517.725 102.47L503 109.009L517.725 115.548L524.009 130.018L531.455 115.548L545.018 109.009L531.455 102.47Z" fill="#95FF8D"/>
<path d="M492.571 114.236C486.735 119.196 480.228 123.019 473.05 125.703C465.872 128.329 458.402 129.642 450.64 129.642C444.688 129.642 438.94 128.854 433.396 127.279C427.91 125.761 422.774 123.602 417.989 120.801C413.204 117.941 408.827 114.557 404.859 110.647C400.89 106.678 397.505 102.301 394.704 97.5161C391.903 92.6724 389.715 87.4786 388.139 81.9346C386.622 76.3906 385.863 70.6423 385.863 64.6898C385.863 58.7373 386.622 53.0182 388.139 47.5326C389.715 42.0469 391.903 36.9114 394.704 32.1261C397.505 27.2823 400.89 22.9055 404.859 18.9955C408.827 15.0272 413.204 11.6424 417.989 8.84123C422.774 6.04005 427.91 3.8808 433.396 2.3635C438.94 0.787832 444.688 0 450.64 0C458.402 0 465.872 1.34223 473.05 4.0267C480.228 6.65281 486.735 10.4461 492.571 15.4065L479.44 37.2907C475.647 33.4391 471.27 30.4337 466.309 28.2744C461.349 26.0568 456.126 24.948 450.64 24.948C445.155 24.948 439.99 25.9985 435.146 28.0994C430.361 30.2002 426.159 33.0598 422.541 36.678C418.923 40.2378 416.063 44.4396 413.962 49.2833C411.862 54.0686 410.811 59.2041 410.811 64.6898C410.811 70.2338 411.862 75.4277 413.962 80.2714C416.063 85.1151 418.923 89.346 422.541 92.9642C426.159 96.5824 430.361 99.442 435.146 101.543C439.99 103.644 445.155 104.694 450.64 104.694C453.792 104.694 456.855 104.315 459.832 103.556C462.808 102.798 465.638 101.747 468.323 100.405V64.6898H492.571V114.236Z" fill="white"/>
<path d="M369.318 126.929H342.445L294.037 44.294V126.929H268.914V1.40088H295.787L344.195 84.1233V1.40088H369.318V126.929Z" fill="white"/>
<path d="M250.541 126.929H225.418V1.40088H250.541V126.929Z" fill="white"/>
<path d="M207.288 126.929H119.401V1.40088H144.524V101.806H207.288V126.929Z" fill="white"/>
<path d="M100.405 89.288C100.405 94.4818 99.413 99.3547 97.4288 103.907C95.4447 108.459 92.731 112.456 89.2879 115.899C85.9032 119.284 81.9348 121.968 77.3829 123.953C72.831 125.937 67.9581 126.929 62.7642 126.929H0.000244141V1.40088H62.7642C67.9581 1.40088 72.831 2.39296 77.3829 4.37713C81.9348 6.3613 85.9032 9.07495 89.2879 12.5181C92.731 15.9028 95.4447 19.8712 97.4288 24.4231C99.413 28.975 100.405 33.8479 100.405 39.0418C100.405 41.3761 100.084 43.7688 99.4422 46.2198C98.8003 48.6708 97.8957 51.0343 96.7286 53.3103C95.5614 55.5862 94.1608 57.6579 92.5268 59.5254C90.8928 61.3929 89.0837 62.9393 87.0995 64.1649C89.142 65.2737 90.9803 66.791 92.6143 68.7168C94.2483 70.5842 95.6489 72.6559 96.8161 74.9319C97.9832 77.2079 98.8586 79.6005 99.4422 82.1099C100.084 84.561 100.405 86.9536 100.405 89.288ZM25.1233 101.806H62.7642C64.515 101.806 66.149 101.485 67.6663 100.843C69.1836 100.201 70.4967 99.3255 71.6055 98.2167C72.7726 97.0496 73.6772 95.7073 74.3191 94.19C74.961 92.6727 75.282 91.0387 75.282 89.288C75.282 87.5372 74.961 85.9032 74.3191 84.3859C73.6772 82.8686 72.7726 81.5555 71.6055 80.4467C70.4967 79.2796 69.1836 78.375 67.6663 77.7331C66.149 77.0911 64.515 76.7702 62.7642 76.7702H25.1233V101.806ZM25.1233 51.6471H62.7642C64.515 51.6471 66.149 51.3261 67.6663 50.6842C69.1836 50.0422 70.4967 49.1669 71.6055 48.0581C72.7726 46.8909 73.6772 45.5487 74.3191 44.0314C74.961 42.4557 75.282 40.7925 75.282 39.0418C75.282 37.291 74.961 35.657 74.3191 34.1397C73.6772 32.6224 72.7726 31.3093 71.6055 30.2005C70.4967 29.0334 69.1836 28.1288 67.6663 27.4869C66.149 26.8449 64.515 26.524 62.7642 26.524H25.1233V51.6471Z" fill="white"/>
<path d="M787.989 65.0402C787.989 70.9927 787.201 76.7409 785.626 82.2849C784.108 87.7706 781.949 92.9353 779.148 97.779C776.347 102.564 772.962 106.941 768.994 110.91C765.025 114.878 760.648 118.292 755.863 121.151C751.078 123.953 745.913 126.112 740.369 127.629C734.825 129.205 729.077 129.993 723.124 129.993C717.172 129.993 711.424 129.205 705.879 127.629C700.394 126.112 695.229 123.953 690.385 121.151C685.6 118.292 681.223 114.878 677.255 110.91C673.287 106.941 669.873 102.564 667.013 97.779C664.212 92.9353 662.023 87.7706 660.448 82.2849C658.931 76.7409 658.172 70.9927 658.172 65.0402C658.172 59.0876 658.931 53.3394 660.448 47.7954C662.023 42.2514 664.212 37.0867 667.013 32.3013C669.873 27.516 673.287 23.1391 677.255 19.1708C681.223 15.2025 685.6 11.8177 690.385 9.01652C695.229 6.21534 700.394 4.0561 705.879 2.53879C711.424 0.963125 717.172 0.175293 723.124 0.175293C729.077 0.175293 734.825 0.963125 740.369 2.53879C745.913 4.0561 751.078 6.21534 755.863 9.01652C760.648 11.8177 765.025 15.2025 768.994 19.1708C772.962 23.1391 776.347 27.516 779.148 32.3013C781.949 37.0867 784.108 42.2514 785.626 47.7954C787.201 53.3394 787.989 59.0876 787.989 65.0402ZM763.041 65.0402C763.041 59.5545 761.991 54.3898 759.89 49.5461C757.789 44.6441 754.929 40.4131 751.311 36.8533C747.751 33.2351 743.52 30.3755 738.618 28.2746C733.775 26.1738 728.61 25.1233 723.124 25.1233C717.58 25.1233 712.386 26.1738 707.543 28.2746C702.699 30.3755 698.468 33.2351 694.85 36.8533C691.232 40.4131 688.372 44.6441 686.271 49.5461C684.17 54.3898 683.12 59.5545 683.12 65.0402C683.12 70.5258 684.17 75.6905 686.271 80.5342C688.372 85.3195 691.232 89.5213 694.85 93.1395C698.468 96.7577 702.699 99.6172 707.543 101.718C712.386 103.819 717.58 104.869 723.124 104.869C728.61 104.869 733.775 103.819 738.618 101.718C743.52 99.6172 747.751 96.7577 751.311 93.1395C754.929 89.5213 757.789 85.3195 759.89 80.5342C761.991 75.6905 763.041 70.5258 763.041 65.0402Z" fill="white"/>
<path d="M654.058 114.411C648.222 119.43 641.686 123.281 634.449 125.966C627.213 128.65 619.714 129.992 611.952 129.992C606 129.992 600.252 129.205 594.708 127.629C589.222 126.112 584.057 123.952 579.213 121.151C574.428 118.292 570.051 114.878 566.083 110.909C562.115 106.941 558.701 102.564 555.841 97.7788C553.04 92.935 550.852 87.7704 549.276 82.2847C547.759 76.7407 547 70.9925 547 65.0399C547 59.0874 547.759 53.3392 549.276 47.7952C550.852 42.2512 553.04 37.0865 555.841 32.3011C558.701 27.4574 562.115 23.0514 566.083 19.0831C570.051 15.1147 574.428 11.7299 579.213 8.92877C584.057 6.06923 589.222 3.8808 594.708 2.3635C600.252 0.787832 606 0 611.952 0C619.714 0 627.213 1.34223 634.449 4.0267C641.686 6.65281 648.222 10.5044 654.058 15.5816L640.752 37.4658C637.075 33.4975 632.728 30.4629 627.709 28.362C622.69 26.2027 617.438 25.1231 611.952 25.1231C606.408 25.1231 601.214 26.1735 596.371 28.2744C591.527 30.3753 587.296 33.2349 583.678 36.853C580.06 40.4129 577.2 44.6438 575.099 49.5459C572.998 54.3896 571.948 59.5543 571.948 65.0399C571.948 70.5256 572.998 75.6903 575.099 80.534C577.2 85.3193 580.06 89.5211 583.678 93.1393C587.296 96.7575 591.527 99.617 596.371 101.718C601.214 103.819 606.408 104.869 611.952 104.869C617.438 104.869 622.69 103.819 627.709 101.718C632.728 99.5587 637.075 96.4949 640.752 92.5265L654.058 114.411Z" fill="white"/>
</g>
<defs>
<clipPath id="clip0_493_716">
<rect width="788" height="131" fill="white"/>
</clipPath>
</defs>
</svg>
