<svg width="524" height="80" viewBox="0 0 524 80" fill="none" xmlns="http://www.w3.org/2000/svg">
<path d="M506.304 77.9127H473.828V63.7562H506.304C507.276 63.7562 508.109 63.4092 508.803 62.7153C509.497 62.0213 509.844 61.1886 509.844 60.2171C509.844 59.2109 509.497 58.5516 508.803 58.2393C508.109 57.9271 507.276 57.7709 506.304 57.7709H491.523C489.06 57.7709 486.753 57.3025 484.601 56.3657C482.45 55.4289 480.576 54.1624 478.98 52.5663C477.384 50.9356 476.118 49.0446 475.181 46.8933C474.279 44.7421 473.828 42.4347 473.828 39.9712C473.828 37.5077 474.279 35.2004 475.181 33.0491C476.118 30.8979 477.384 29.0243 478.98 27.4282C480.576 25.8321 482.45 24.583 484.601 23.6809C486.753 22.744 489.06 22.2756 491.523 22.2756H520.305V36.4321H491.523C490.552 36.4321 489.719 36.7791 489.025 37.473C488.331 38.167 487.984 38.9997 487.984 39.9712C487.984 40.9775 488.331 41.8449 489.025 42.5735C489.719 43.2675 490.552 43.6144 491.523 43.6144H506.304C508.733 43.6144 511.023 44.0308 513.175 44.8636C515.326 45.6616 517.199 46.7892 518.795 48.2465C520.392 49.7038 521.658 51.456 522.595 53.5032C523.532 55.5503 524 57.7883 524 60.2171C524 62.6806 523.532 64.988 522.595 67.1392C521.658 69.2557 520.392 71.1294 518.795 72.7601C517.199 74.3562 515.326 75.6227 513.175 76.5595C511.023 77.4616 508.733 77.9127 506.304 77.9127Z" fill="black"/>
<path d="M506.304 77.9127H473.828V63.7562H506.304C507.276 63.7562 508.109 63.4092 508.803 62.7153C509.497 62.0213 509.844 61.1886 509.844 60.2171C509.844 59.2109 509.497 58.5516 508.803 58.2393C508.109 57.9271 507.276 57.7709 506.304 57.7709H491.523C489.06 57.7709 486.753 57.3025 484.601 56.3657C482.45 55.4289 480.576 54.1624 478.98 52.5663C477.384 50.9356 476.118 49.0446 475.181 46.8933C474.279 44.7421 473.828 42.4347 473.828 39.9712C473.828 37.5077 474.279 35.2004 475.181 33.0491C476.118 30.8979 477.384 29.0243 478.98 27.4282C480.576 25.8321 482.45 24.583 484.601 23.6809C486.753 22.744 489.06 22.2756 491.523 22.2756H520.305V36.4321H491.523C490.552 36.4321 489.719 36.7791 489.025 37.473C488.331 38.167 487.984 38.9997 487.984 39.9712C487.984 40.9775 488.331 41.8449 489.025 42.5735C489.719 43.2675 490.552 43.6144 491.523 43.6144H506.304C508.733 43.6144 511.023 44.0308 513.175 44.8636C515.326 45.6616 517.199 46.7892 518.795 48.2465C520.392 49.7038 521.658 51.456 522.595 53.5032C523.532 55.5503 524 57.7883 524 60.2171C524 62.6806 523.532 64.988 522.595 67.1392C521.658 69.2557 520.392 71.1294 518.795 72.7601C517.199 74.3562 515.326 75.6227 513.175 76.5595C511.023 77.4616 508.733 77.9127 506.304 77.9127Z" fill="#95FF8D"/>
<path d="M468.49 48.0906C468.49 52.2195 467.709 56.1056 466.148 59.7488C464.587 63.3573 462.453 66.5148 459.746 69.2212C457.04 71.8929 453.865 74.0094 450.222 75.5708C446.613 77.1322 442.745 77.9128 438.616 77.9128C434.487 77.9128 430.601 77.1322 426.957 75.5708C423.349 74.0094 420.191 71.8929 417.485 69.2212C414.813 66.5148 412.697 63.3573 411.135 59.7488C409.574 56.1056 408.793 52.2195 408.793 48.0906V3.27905H423.679V48.0906C423.679 50.1377 424.06 52.0634 424.824 53.8676C425.622 55.6719 426.697 57.2506 428.05 58.6038C429.404 59.957 430.982 61.0326 432.787 61.8307C434.626 62.594 436.569 62.9757 438.616 62.9757C440.663 62.9757 442.589 62.594 444.393 61.8307C446.232 61.0326 447.828 59.957 449.181 58.6038C450.534 57.2506 451.592 55.6719 452.356 53.8676C453.154 52.0634 453.553 50.1377 453.553 48.0906V3.27905H468.49V48.0906Z" fill="black"/>
<path d="M468.49 48.0906C468.49 52.2195 467.709 56.1056 466.148 59.7488C464.587 63.3573 462.453 66.5148 459.746 69.2212C457.04 71.8929 453.865 74.0094 450.222 75.5708C446.613 77.1322 442.745 77.9128 438.616 77.9128C434.487 77.9128 430.601 77.1322 426.957 75.5708C423.349 74.0094 420.191 71.8929 417.485 69.2212C414.813 66.5148 412.697 63.3573 411.135 59.7488C409.574 56.1056 408.793 52.2195 408.793 48.0906V3.27905H423.679V48.0906C423.679 50.1377 424.06 52.0634 424.824 53.8676C425.622 55.6719 426.697 57.2506 428.05 58.6038C429.404 59.957 430.982 61.0326 432.787 61.8307C434.626 62.594 436.569 62.9757 438.616 62.9757C440.663 62.9757 442.589 62.594 444.393 61.8307C446.232 61.0326 447.828 59.957 449.181 58.6038C450.534 57.2506 451.592 55.6719 452.356 53.8676C453.154 52.0634 453.553 50.1377 453.553 48.0906V3.27905H468.49V48.0906Z" fill="#95FF8D"/>
<path d="M365.849 77.9127C362.414 77.9127 359.187 77.2708 356.169 75.987C353.15 74.6685 350.496 72.8816 348.206 70.6263C345.95 68.3362 344.163 65.6819 342.845 62.6632C341.561 59.6446 340.919 56.4177 340.919 52.9827V36.4321H333.997V22.2756H340.919V0H355.076V22.2756H376.623V36.4321H355.076V52.9827C355.076 54.4747 355.353 55.8799 355.908 57.1984C356.464 58.4822 357.227 59.6099 358.198 60.5814C359.17 61.5529 360.315 62.3336 361.634 62.9235C362.952 63.4786 364.357 63.7562 365.849 63.7562H376.623V77.9127H365.849Z" fill="black"/>
<path d="M365.849 77.9127C362.414 77.9127 359.187 77.2708 356.169 75.987C353.15 74.6685 350.496 72.8816 348.206 70.6263C345.95 68.3362 344.163 65.6819 342.845 62.6632C341.561 59.6446 340.919 56.4177 340.919 52.9827V36.4321H333.997V22.2756H340.919V0H355.076V22.2756H376.623V36.4321H355.076V52.9827C355.076 54.4747 355.353 55.8799 355.908 57.1984C356.464 58.4822 357.227 59.6099 358.198 60.5814C359.17 61.5529 360.315 62.3336 361.634 62.9235C362.952 63.4786 364.357 63.7562 365.849 63.7562H376.623V77.9127H365.849Z" fill="#95FF8D"/>
<path d="M334.124 33.2573L323.715 43.7185C323.195 42.2612 322.483 40.96 321.581 39.815C320.679 38.6353 319.655 37.6465 318.51 36.8484C317.4 36.0504 316.186 35.4432 314.867 35.0268C313.549 34.6104 312.195 34.4023 310.808 34.4023C308.865 34.4023 307.026 34.8013 305.291 35.5993C303.591 36.3974 302.099 37.525 300.815 38.9823C299.566 40.4049 298.577 42.1051 297.848 44.0828C297.12 46.0605 296.755 48.2465 296.755 50.6406C296.755 52.5836 297.12 54.4052 297.848 56.1054C298.577 57.8056 299.566 59.2975 300.815 60.5813C302.099 61.8651 303.591 62.8714 305.291 63.6C307.026 64.3286 308.865 64.693 310.808 64.693C312.195 64.693 313.531 64.5021 314.815 64.1205C316.099 63.7388 317.296 63.201 318.406 62.507C319.551 61.7784 320.558 60.911 321.425 59.9047C322.327 58.8638 323.056 57.7188 323.611 56.4697L334.02 66.9309C332.702 68.8046 331.175 70.4874 329.44 71.9794C327.74 73.4714 325.884 74.7378 323.871 75.7787C321.893 76.8197 319.794 77.6003 317.574 78.1208C315.388 78.676 313.132 78.9535 310.808 78.9535C306.887 78.9535 303.192 78.2249 299.722 76.7676C296.287 75.2756 293.268 73.2458 290.666 70.6782C288.098 68.1106 286.068 65.1093 284.576 61.6743C283.084 58.2393 282.339 54.5614 282.339 50.6406C282.339 46.3728 283.084 42.3826 284.576 38.67C286.068 34.9574 288.098 31.7306 290.666 28.9895C293.268 26.2137 296.287 24.0278 299.722 22.4317C303.192 20.8356 306.887 20.0376 310.808 20.0376C313.132 20.0376 315.405 20.3325 317.626 20.9224C319.881 21.5122 322.015 22.3797 324.027 23.5247C326.074 24.635 327.948 26.0055 329.648 27.6363C331.383 29.2671 332.875 31.1407 334.124 33.2573Z" fill="black"/>
<path d="M334.124 33.2573L323.715 43.7185C323.195 42.2612 322.483 40.96 321.581 39.815C320.679 38.6353 319.655 37.6465 318.51 36.8484C317.4 36.0504 316.186 35.4432 314.867 35.0268C313.549 34.6104 312.195 34.4023 310.808 34.4023C308.865 34.4023 307.026 34.8013 305.291 35.5993C303.591 36.3974 302.099 37.525 300.815 38.9823C299.566 40.4049 298.577 42.1051 297.848 44.0828C297.12 46.0605 296.755 48.2465 296.755 50.6406C296.755 52.5836 297.12 54.4052 297.848 56.1054C298.577 57.8056 299.566 59.2975 300.815 60.5813C302.099 61.8651 303.591 62.8714 305.291 63.6C307.026 64.3286 308.865 64.693 310.808 64.693C312.195 64.693 313.531 64.5021 314.815 64.1205C316.099 63.7388 317.296 63.201 318.406 62.507C319.551 61.7784 320.558 60.911 321.425 59.9047C322.327 58.8638 323.056 57.7188 323.611 56.4697L334.02 66.9309C332.702 68.8046 331.175 70.4874 329.44 71.9794C327.74 73.4714 325.884 74.7378 323.871 75.7787C321.893 76.8197 319.794 77.6003 317.574 78.1208C315.388 78.676 313.132 78.9535 310.808 78.9535C306.887 78.9535 303.192 78.2249 299.722 76.7676C296.287 75.2756 293.268 73.2458 290.666 70.6782C288.098 68.1106 286.068 65.1093 284.576 61.6743C283.084 58.2393 282.339 54.5614 282.339 50.6406C282.339 46.3728 283.084 42.3826 284.576 38.67C286.068 34.9574 288.098 31.7306 290.666 28.9895C293.268 26.2137 296.287 24.0278 299.722 22.4317C303.192 20.8356 306.887 20.0376 310.808 20.0376C313.132 20.0376 315.405 20.3325 317.626 20.9224C319.881 21.5122 322.015 22.3797 324.027 23.5247C326.074 24.635 327.948 26.0055 329.648 27.6363C331.383 29.2671 332.875 31.1407 334.124 33.2573Z" fill="#95FF8D"/>
<path d="M277.729 77.9126H274.294L268.777 70.2619C267.424 71.4763 265.984 72.6213 264.458 73.6969C262.966 74.7378 261.387 75.6573 259.721 76.4553C258.056 77.2187 256.339 77.8259 254.569 78.2769C252.834 78.728 251.065 78.9535 249.26 78.9535C245.339 78.9535 241.644 78.2943 238.174 76.9758C234.739 75.6573 231.721 73.7489 229.119 71.2507C226.551 68.7178 224.521 65.6298 223.029 61.9866C221.537 58.3434 220.791 54.197 220.791 49.5476C220.791 45.2105 221.537 41.2376 223.029 37.6291C224.521 33.9859 226.551 30.8631 229.119 28.2608C231.721 25.6586 234.739 23.6461 238.174 22.2235C241.644 20.7662 245.339 20.0376 249.26 20.0376C251.065 20.0376 252.851 20.2631 254.621 20.7142C256.391 21.1653 258.108 21.7898 259.774 22.5878C261.439 23.3859 263.018 24.3227 264.51 25.3983C266.036 26.4739 267.459 27.6363 268.777 28.8854L274.294 22.2756H277.729V77.9126ZM263.417 49.5476C263.417 47.6046 263.035 45.7309 262.272 43.9267C261.543 42.0877 260.537 40.4743 259.253 39.0864C257.969 37.6638 256.46 36.5361 254.725 35.7034C253.025 34.836 251.203 34.4023 249.26 34.4023C247.317 34.4023 245.478 34.7319 243.743 35.3911C242.043 36.0504 240.551 37.0219 239.267 38.3057C238.018 39.5895 237.029 41.1856 236.301 43.0939C235.572 44.9676 235.208 47.1188 235.208 49.5476C235.208 51.9764 235.572 54.145 236.301 56.0533C237.029 57.927 238.018 59.5057 239.267 60.7895C240.551 62.0733 242.043 63.0448 243.743 63.7041C245.478 64.3633 247.317 64.693 249.26 64.693C251.203 64.693 253.025 64.2766 254.725 63.4439C256.46 62.5764 257.969 61.4488 259.253 60.0609C260.537 58.6383 261.543 57.0249 262.272 55.2206C263.035 53.3817 263.417 51.4907 263.417 49.5476Z" fill="black"/>
<path d="M277.729 77.9126H274.294L268.777 70.2619C267.424 71.4763 265.984 72.6213 264.458 73.6969C262.966 74.7378 261.387 75.6573 259.721 76.4553C258.056 77.2187 256.339 77.8259 254.569 78.2769C252.834 78.728 251.065 78.9535 249.26 78.9535C245.339 78.9535 241.644 78.2943 238.174 76.9758C234.739 75.6573 231.721 73.7489 229.119 71.2507C226.551 68.7178 224.521 65.6298 223.029 61.9866C221.537 58.3434 220.791 54.197 220.791 49.5476C220.791 45.2105 221.537 41.2376 223.029 37.6291C224.521 33.9859 226.551 30.8631 229.119 28.2608C231.721 25.6586 234.739 23.6461 238.174 22.2235C241.644 20.7662 245.339 20.0376 249.26 20.0376C251.065 20.0376 252.851 20.2631 254.621 20.7142C256.391 21.1653 258.108 21.7898 259.774 22.5878C261.439 23.3859 263.018 24.3227 264.51 25.3983C266.036 26.4739 267.459 27.6363 268.777 28.8854L274.294 22.2756H277.729V77.9126ZM263.417 49.5476C263.417 47.6046 263.035 45.7309 262.272 43.9267C261.543 42.0877 260.537 40.4743 259.253 39.0864C257.969 37.6638 256.46 36.5361 254.725 35.7034C253.025 34.836 251.203 34.4023 249.26 34.4023C247.317 34.4023 245.478 34.7319 243.743 35.3911C242.043 36.0504 240.551 37.0219 239.267 38.3057C238.018 39.5895 237.029 41.1856 236.301 43.0939C235.572 44.9676 235.208 47.1188 235.208 49.5476C235.208 51.9764 235.572 54.145 236.301 56.0533C237.029 57.927 238.018 59.5057 239.267 60.7895C240.551 62.0733 242.043 63.0448 243.743 63.7041C245.478 64.3633 247.317 64.693 249.26 64.693C251.203 64.693 253.025 64.2766 254.725 63.4439C256.46 62.5764 257.969 61.4488 259.253 60.0609C260.537 58.6383 261.543 57.0249 262.272 55.2206C263.035 53.3817 263.417 51.4907 263.417 49.5476Z" fill="#95FF8D"/>
<path d="M208.167 77.9127C204.732 77.9127 201.505 77.2708 198.486 75.987C195.468 74.6685 192.813 72.8816 190.523 70.6263C188.268 68.3362 186.481 65.6819 185.163 62.6632C183.879 59.6446 183.237 56.4177 183.237 52.9827V36.4321H176.315V22.2756H183.237V0H197.393V22.2756H218.94V36.4321H197.393V52.9827C197.393 54.4747 197.671 55.8799 198.226 57.1984C198.781 58.4822 199.545 59.6099 200.516 60.5814C201.488 61.5529 202.633 62.3336 203.951 62.9235C205.27 63.4786 206.675 63.7562 208.167 63.7562H218.94V77.9127H208.167Z" fill="black"/>
<path d="M208.167 77.9127C204.732 77.9127 201.505 77.2708 198.486 75.987C195.468 74.6685 192.813 72.8816 190.523 70.6263C188.268 68.3362 186.481 65.6819 185.163 62.6632C183.879 59.6446 183.237 56.4177 183.237 52.9827V36.4321H176.315V22.2756H183.237V0H197.393V22.2756H218.94V36.4321H197.393V52.9827C197.393 54.4747 197.671 55.8799 198.226 57.1984C198.781 58.4822 199.545 59.6099 200.516 60.5814C201.488 61.5529 202.633 62.3336 203.951 62.9235C205.27 63.4786 206.675 63.7562 208.167 63.7562H218.94V77.9127H208.167Z" fill="#95FF8D"/>
<path d="M138.396 77.9125H124.188V22.1713H127.623L132.307 27.5841C134.597 25.5023 137.182 23.9062 140.062 22.7959C142.976 21.6509 146.012 21.0784 149.17 21.0784C152.57 21.0784 155.78 21.7376 158.798 23.0561C161.817 24.3399 164.454 26.1268 166.709 28.4168C168.965 30.6722 170.734 33.3265 172.018 36.3799C173.336 39.3985 173.996 42.6254 173.996 46.0604V77.9125H159.787V46.0604C159.787 44.6031 159.51 43.2326 158.954 41.9488C158.399 40.6303 157.636 39.4853 156.664 38.5137C155.693 37.5422 154.565 36.7789 153.281 36.2237C151.998 35.6686 150.627 35.391 149.17 35.391C147.678 35.391 146.273 35.6686 144.954 36.2237C143.636 36.7789 142.491 37.5422 141.519 38.5137C140.548 39.4853 139.784 40.6303 139.229 41.9488C138.674 43.2326 138.396 44.6031 138.396 46.0604V77.9125Z" fill="black"/>
<path d="M138.396 77.9125H124.188V22.1713H127.623L132.307 27.5841C134.597 25.5023 137.182 23.9062 140.062 22.7959C142.976 21.6509 146.012 21.0784 149.17 21.0784C152.57 21.0784 155.78 21.7376 158.798 23.0561C161.817 24.3399 164.454 26.1268 166.709 28.4168C168.965 30.6722 170.734 33.3265 172.018 36.3799C173.336 39.3985 173.996 42.6254 173.996 46.0604V77.9125H159.787V46.0604C159.787 44.6031 159.51 43.2326 158.954 41.9488C158.399 40.6303 157.636 39.4853 156.664 38.5137C155.693 37.5422 154.565 36.7789 153.281 36.2237C151.998 35.6686 150.627 35.391 149.17 35.391C147.678 35.391 146.273 35.6686 144.954 36.2237C143.636 36.7789 142.491 37.5422 141.519 38.5137C140.548 39.4853 139.784 40.6303 139.229 41.9488C138.674 43.2326 138.396 44.6031 138.396 46.0604V77.9125Z" fill="#95FF8D"/>
<path d="M119.526 49.5476C119.526 53.7113 118.78 57.5974 117.289 61.2059C115.797 64.7797 113.767 67.8851 111.199 70.5221C108.632 73.1244 105.613 75.1889 102.143 76.7156C98.7081 78.2075 95.0129 78.9535 91.0574 78.9535C87.1366 78.9535 83.4413 78.2075 79.9716 76.7156C76.5366 75.1889 73.5179 73.1244 70.9156 70.5221C68.348 67.8851 66.3182 64.7797 64.8263 61.2059C63.3343 57.5974 62.5883 53.7113 62.5883 49.5476C62.5883 45.3145 63.3343 41.3938 64.8263 37.7852C66.3182 34.1767 68.348 31.0713 70.9156 28.469C73.5179 25.832 76.5366 23.7676 79.9716 22.2756C83.4413 20.7836 87.1366 20.0376 91.0574 20.0376C95.0129 20.0376 98.7081 20.7489 102.143 22.1715C105.613 23.5594 108.632 25.5545 111.199 28.1568C113.767 30.7244 115.797 33.8298 117.289 37.473C118.78 41.0815 119.526 45.1064 119.526 49.5476ZM105.214 49.5476C105.214 47.2576 104.832 45.1931 104.069 43.3542C103.34 41.4805 102.334 39.8844 101.05 38.5659C99.7664 37.2127 98.2571 36.1892 96.5222 35.4952C94.822 34.7666 93.0004 34.4023 91.0574 34.4023C89.1143 34.4023 87.2754 34.7666 85.5405 35.4952C83.8404 36.1892 82.3484 37.2127 81.0646 38.5659C79.8155 39.8844 78.8266 41.4805 78.098 43.3542C77.3693 45.1931 77.005 47.2576 77.005 49.5476C77.005 51.6988 77.3693 53.6939 78.098 55.5329C78.8266 57.3718 79.8155 58.9679 81.0646 60.3211C82.3484 61.6743 83.8404 62.7499 85.5405 63.548C87.2754 64.3113 89.1143 64.693 91.0574 64.693C93.0004 64.693 94.822 64.3286 96.5222 63.6C98.2571 62.8714 99.7664 61.8478 101.05 60.5293C102.334 59.2108 103.34 57.6147 104.069 55.7411C104.832 53.8674 105.214 51.8029 105.214 49.5476Z" fill="black"/>
<path d="M119.526 49.5476C119.526 53.7113 118.78 57.5974 117.289 61.2059C115.797 64.7797 113.767 67.8851 111.199 70.5221C108.632 73.1244 105.613 75.1889 102.143 76.7156C98.7081 78.2075 95.0129 78.9535 91.0574 78.9535C87.1366 78.9535 83.4413 78.2075 79.9716 76.7156C76.5366 75.1889 73.5179 73.1244 70.9156 70.5221C68.348 67.8851 66.3182 64.7797 64.8263 61.2059C63.3343 57.5974 62.5883 53.7113 62.5883 49.5476C62.5883 45.3145 63.3343 41.3938 64.8263 37.7852C66.3182 34.1767 68.348 31.0713 70.9156 28.469C73.5179 25.832 76.5366 23.7676 79.9716 22.2756C83.4413 20.7836 87.1366 20.0376 91.0574 20.0376C95.0129 20.0376 98.7081 20.7489 102.143 22.1715C105.613 23.5594 108.632 25.5545 111.199 28.1568C113.767 30.7244 115.797 33.8298 117.289 37.473C118.78 41.0815 119.526 45.1064 119.526 49.5476ZM105.214 49.5476C105.214 47.2576 104.832 45.1931 104.069 43.3542C103.34 41.4805 102.334 39.8844 101.05 38.5659C99.7664 37.2127 98.2571 36.1892 96.5222 35.4952C94.822 34.7666 93.0004 34.4023 91.0574 34.4023C89.1143 34.4023 87.2754 34.7666 85.5405 35.4952C83.8404 36.1892 82.3484 37.2127 81.0646 38.5659C79.8155 39.8844 78.8266 41.4805 78.098 43.3542C77.3693 45.1931 77.005 47.2576 77.005 49.5476C77.005 51.6988 77.3693 53.6939 78.098 55.5329C78.8266 57.3718 79.8155 58.9679 81.0646 60.3211C82.3484 61.6743 83.8404 62.7499 85.5405 63.548C87.2754 64.3113 89.1143 64.693 91.0574 64.693C93.0004 64.693 94.822 64.3286 96.5222 63.6C98.2571 62.8714 99.7664 61.8478 101.05 60.5293C102.334 59.2108 103.34 57.6147 104.069 55.7411C104.832 53.8674 105.214 51.8029 105.214 49.5476Z" fill="#95FF8D"/>
<path d="M63.6521 70.262C60.1824 73.246 56.2963 75.536 51.9938 77.1321C47.6914 78.7281 43.2328 79.5262 38.618 79.5262C35.0789 79.5262 31.6612 79.0578 28.365 78.1209C25.1035 77.2188 22.0328 75.935 19.1529 74.2695C16.3077 72.5694 13.7054 70.5396 11.346 68.1802C8.98659 65.8208 6.9568 63.2185 5.25663 60.3733C3.59117 57.4934 2.29002 54.4227 1.35319 51.1612C0.451064 47.8649 0 44.4473 0 40.9081C0 37.369 0.451064 33.9513 1.35319 30.6551C2.29002 27.3589 3.59117 24.2881 5.25663 21.443C6.9568 18.5631 8.98659 15.9435 11.346 13.584C13.7054 11.2246 16.3077 9.21219 19.1529 7.54672C22.0328 5.84655 25.1035 4.5454 28.365 3.64328C31.6612 2.70645 35.0789 2.23804 38.618 2.23804C43.2328 2.23804 47.6914 3.03607 51.9938 4.63215C56.2963 6.19352 60.1824 8.48354 63.6521 11.5022L55.7411 24.5137C53.5552 22.1543 50.9703 20.35 47.9863 19.1009C45.0023 17.8171 41.8796 17.1752 38.618 17.1752C35.3218 17.1752 32.2338 17.7998 29.3539 19.0489C26.474 20.298 23.9585 21.9981 21.8072 24.1494C19.656 26.2659 17.9558 28.7814 16.7067 31.696C15.4576 34.5759 14.8331 37.6466 14.8331 40.9081C14.8331 44.1697 15.4576 47.2404 16.7067 50.1203C17.9558 52.9654 19.656 55.4636 21.8072 57.6149C23.9585 59.7661 26.474 61.4663 29.3539 62.7154C32.2338 63.9645 35.3218 64.589 38.618 64.589C41.8796 64.589 45.0023 63.9645 47.9863 62.7154C50.9703 61.4316 53.5552 59.61 55.7411 57.2505L63.6521 70.262Z" fill="black"/>
<path d="M63.6521 70.262C60.1824 73.246 56.2963 75.536 51.9938 77.1321C47.6914 78.7281 43.2328 79.5262 38.618 79.5262C35.0789 79.5262 31.6612 79.0578 28.365 78.1209C25.1035 77.2188 22.0328 75.935 19.1529 74.2695C16.3077 72.5694 13.7054 70.5396 11.346 68.1802C8.98659 65.8208 6.9568 63.2185 5.25663 60.3733C3.59117 57.4934 2.29002 54.4227 1.35319 51.1612C0.451064 47.8649 0 44.4473 0 40.9081C0 37.369 0.451064 33.9513 1.35319 30.6551C2.29002 27.3589 3.59117 24.2881 5.25663 21.443C6.9568 18.5631 8.98659 15.9435 11.346 13.584C13.7054 11.2246 16.3077 9.21219 19.1529 7.54672C22.0328 5.84655 25.1035 4.5454 28.365 3.64328C31.6612 2.70645 35.0789 2.23804 38.618 2.23804C43.2328 2.23804 47.6914 3.03607 51.9938 4.63215C56.2963 6.19352 60.1824 8.48354 63.6521 11.5022L55.7411 24.5137C53.5552 22.1543 50.9703 20.35 47.9863 19.1009C45.0023 17.8171 41.8796 17.1752 38.618 17.1752C35.3218 17.1752 32.2338 17.7998 29.3539 19.0489C26.474 20.298 23.9585 21.9981 21.8072 24.1494C19.656 26.2659 17.9558 28.7814 16.7067 31.696C15.4576 34.5759 14.8331 37.6466 14.8331 40.9081C14.8331 44.1697 15.4576 47.2404 16.7067 50.1203C17.9558 52.9654 19.656 55.4636 21.8072 57.6149C23.9585 59.7661 26.474 61.4663 29.3539 62.7154C32.2338 63.9645 35.3218 64.589 38.618 64.589C41.8796 64.589 45.0023 63.9645 47.9863 62.7154C50.9703 61.4316 53.5552 59.61 55.7411 57.2505L63.6521 70.262Z" fill="#95FF8D"/>
</svg>
