<svg width="284" height="92" viewBox="0 0 284 92" fill="none" xmlns="http://www.w3.org/2000/svg">
<path d="M273.37 72.696C270.262 72.696 267.343 72.1153 264.612 70.9539C261.882 69.7612 259.48 68.1447 257.409 66.1044C255.369 64.0327 253.752 61.6315 252.559 58.9007C251.398 56.1699 250.817 53.2508 250.817 50.1433V35.1709H244.555V22.3644H250.817V2.21289H263.624V22.3644H283.116V35.1709H263.624V50.1433C263.624 51.493 263.875 52.7642 264.377 53.957C264.879 55.1184 265.57 56.1385 266.449 57.0174C267.328 57.8963 268.363 58.6025 269.556 59.1361C270.749 59.6383 272.02 59.8895 273.37 59.8895H283.116V72.696H273.37Z" fill="#95FF8D"/>
<path d="M210.253 72.696H197.399V2.21289H210.253V24.4831C211.791 23.3217 213.376 22.5056 215.008 22.0348C216.64 21.5326 218.304 21.2815 219.999 21.2815C223.106 21.2815 226.025 21.8778 228.756 23.0706C231.487 24.232 233.857 25.8485 235.866 27.9202C237.906 29.9604 239.507 32.3616 240.668 35.1238C241.861 37.8546 242.457 40.7738 242.457 43.8813V72.696H229.509V43.8813H229.604C229.604 42.5629 229.353 41.3231 228.85 40.1617C228.348 38.9689 227.658 37.9331 226.779 37.0542C225.9 36.1754 224.88 35.4848 223.718 34.9826C222.557 34.4804 221.317 34.2293 219.999 34.2293C218.649 34.2293 217.378 34.4804 216.185 34.9826C214.992 35.4848 213.956 36.1754 213.078 37.0542C212.199 37.9331 211.508 38.9689 211.006 40.1617C210.504 41.3231 210.253 42.5629 210.253 43.8813V72.696Z" fill="#95FF8D"/>
<path d="M177.504 47.0359C177.504 45.2781 177.159 43.5831 176.468 41.9509C175.809 40.2873 174.899 38.8277 173.738 37.5722C172.576 36.2853 171.211 35.2651 169.641 34.5118C168.103 33.7271 166.455 33.3347 164.698 33.3347C162.94 33.3347 161.276 33.6329 159.707 34.2293C158.169 34.8257 156.819 35.7046 155.658 36.8659C154.528 38.0273 153.633 39.4712 152.974 41.1976C152.315 42.8926 151.985 44.8386 151.985 47.0359C151.985 49.1389 152.315 51.0379 152.974 52.7329C153.633 54.3965 154.528 55.8247 155.658 57.0174C156.819 58.2102 158.169 59.1362 159.707 59.7953C161.276 60.4231 162.94 60.737 164.698 60.737C166.455 60.737 168.103 60.3603 169.641 59.607C171.211 58.8223 172.576 57.8021 173.738 56.5466C174.899 55.2597 175.809 53.8001 176.468 52.1679C177.159 50.5043 177.504 48.7936 177.504 47.0359ZM190.452 66.3398C190.452 69.8868 189.777 73.214 188.428 76.3214C187.078 79.4289 185.226 82.144 182.872 84.4668C180.549 86.7895 177.818 88.6258 174.679 89.9755C171.572 91.3252 168.245 92 164.698 92L158.247 91.9059V79.0522L164.604 79.1464C166.612 79.1464 168.323 78.8796 169.736 78.346C171.148 77.8438 172.341 77.1375 173.314 76.2273C174.287 75.3484 175.056 74.3282 175.621 73.1669C176.217 72.0055 176.688 70.7813 177.033 69.4944C176.531 70.3105 175.809 70.9854 174.868 71.519C173.926 72.0212 172.874 72.4292 171.713 72.7431C170.583 73.0884 169.39 73.3238 168.135 73.4494C166.911 73.5749 165.765 73.6377 164.698 73.6377C161.151 73.6377 157.808 73.0256 154.669 71.8015C151.562 70.5773 148.831 68.8352 146.477 66.5753C144.154 64.2839 142.318 61.4903 140.968 58.1945C139.618 54.8987 138.943 51.1791 138.943 47.0359C138.943 43.2378 139.618 39.7066 140.968 36.4422C142.318 33.1778 144.154 30.3528 146.477 27.9673C148.831 25.5817 151.562 23.7141 154.669 22.3644C157.808 21.0147 161.151 20.3398 164.698 20.3398C166.33 20.3398 167.946 20.5439 169.547 20.9519C171.148 21.36 172.702 21.925 174.208 22.6469C175.715 23.3688 177.143 24.2163 178.493 25.1894C179.874 26.1624 181.161 27.2139 182.354 28.3439L187.345 22.3644H190.452V66.3398Z" fill="#95FF8D"/>
<path d="M136.892 8.56909C136.892 9.76186 136.656 10.8762 136.185 11.912C135.746 12.9478 135.134 13.8581 134.349 14.6428C133.565 15.3961 132.639 16.0082 131.571 16.479C130.536 16.9185 129.421 17.1382 128.228 17.1382C127.036 17.1382 125.906 16.9185 124.839 16.479C123.803 16.0082 122.892 15.3961 122.108 14.6428C121.354 13.8581 120.742 12.9478 120.271 11.912C119.832 10.8762 119.612 9.76186 119.612 8.56909C119.612 7.40771 119.832 6.30911 120.271 5.27329C120.742 4.20607 121.354 3.2958 122.108 2.54248C122.892 1.75776 123.803 1.14568 124.839 0.706244C125.906 0.235415 127.036 0 128.228 0C129.421 0 130.536 0.235415 131.571 0.706244C132.639 1.14568 133.565 1.75776 134.349 2.54248C135.134 3.2958 135.746 4.20607 136.185 5.27329C136.656 6.30911 136.892 7.40771 136.892 8.56909ZM134.679 72.696H121.731V22.2702H134.679V72.696Z" fill="#95FF8D"/>
<path d="M101.742 72.6959H72.3618V59.8893H101.742C102.62 59.8893 103.374 59.5754 104.002 58.9477C104.629 58.3199 104.943 57.5666 104.943 56.6877C104.943 55.7774 104.629 55.181 104.002 54.8985C103.374 54.616 102.62 54.4748 101.742 54.4748H88.37C86.1414 54.4748 84.0541 54.0511 82.108 53.2036C80.1619 52.3561 78.4669 51.2104 77.023 49.7665C75.5791 48.2912 74.4335 46.5806 73.586 44.6345C72.7699 42.6884 72.3618 40.601 72.3618 38.3724C72.3618 36.1439 72.7699 34.0565 73.586 32.1104C74.4335 30.1643 75.5791 28.4693 77.023 27.0255C78.4669 25.5816 80.1619 24.4516 82.108 23.6355C84.0541 22.788 86.1414 22.3643 88.37 22.3643H114.407V35.1708H88.37C87.4911 35.1708 86.7378 35.4847 86.11 36.1125C85.4823 36.7402 85.1684 37.4936 85.1684 38.3724C85.1684 39.2827 85.4823 40.0674 86.11 40.7266C86.7378 41.3544 87.4911 41.6682 88.37 41.6682H101.742C103.939 41.6682 106.01 42.0449 107.956 42.7982C109.903 43.5202 111.598 44.5403 113.041 45.8586C114.485 47.1769 115.631 48.7621 116.479 50.614C117.326 52.4659 117.75 54.4905 117.75 56.6877C117.75 58.9163 117.326 61.0036 116.479 62.9497C115.631 64.8644 114.485 66.5594 113.041 68.0347C111.598 69.4785 109.903 70.6242 107.956 71.4717C106.01 72.2878 103.939 72.6959 101.742 72.6959Z" fill="#95FF8D"/>
<path d="M35.5646 72.6958H22.7109V22.27H25.8184L30.0559 27.1666C32.1275 25.2833 34.466 23.8394 37.0712 22.835C39.7079 21.7992 42.4544 21.2812 45.3107 21.2812C48.3868 21.2812 51.2903 21.8776 54.0211 23.0704C56.7519 24.2318 59.1374 25.8483 61.1777 27.9199C63.2179 29.9602 64.8188 32.3614 65.9801 35.1236C67.1729 37.8544 67.7693 40.7736 67.7693 43.881V72.6958H54.9157V43.881C54.9157 42.5627 54.6645 41.3229 54.1623 40.1615C53.6601 38.9687 52.9696 37.9329 52.0907 37.054C51.2118 36.1751 50.1917 35.4846 49.0303 34.9824C47.8689 34.4802 46.6291 34.2291 45.3107 34.2291C43.961 34.2291 42.6898 34.4802 41.497 34.9824C40.3043 35.4846 39.2684 36.1751 38.3895 37.054C37.5107 37.9329 36.8201 38.9687 36.3179 40.1615C35.8157 41.3229 35.5646 42.5627 35.5646 43.881V72.6958Z" fill="#95FF8D"/>
<path d="M14.3971 72.6966H0.884277V5.17969H14.3971V72.6966Z" fill="#95FF8D"/>
</svg>
